<?xml version="1.0" encoding="utf-8"?>
<!-- Generator: Adobe Illustrator 25.0.0, SVG Export Plug-In . SVG Version: 6.00 Build 0)  -->
<svg version="1.1" id="Warstwa_1" xmlns="http://www.w3.org/2000/svg" xmlns:xlink="http://www.w3.org/1999/xlink" x="0px" y="0px"
	 viewBox="0 0 45.35 45.35" style="enable-background:new 0 0 45.35 45.35;" xml:space="preserve">
<style type="text/css">
	.st0{fill:none;}
</style>
<rect x="9.91" y="17.25" class="st0" width="21.27" height="16.12"/>
<rect x="8.42" y="10.16" class="st0" width="21.27" height="23.21"/>
<rect x="12.45" y="12.93" class="st0" width="26.72" height="22.99"/>
<path d="M28.62,14.25c-1.69,0.54-3.13-1.75-4.5-1.2c-1.18,0.47-1.54,2.75-1.04,4.43c0.76,2.53,3.63,4.06,6.17,4.27
	c0.34,0.03,4.58,0.3,6.46-2.74c0.9-1.47,1.17-3.57,0.12-5.31c-0.97-1.6-3.09-2.96-4.55-2.46C29.79,11.75,30.1,13.78,28.62,14.25z"/>
<path d="M11.83,17.07c-1.67,0.57-3.11-1.85-4.46-1.27c-1.17,0.5-1.53,2.91-1.03,4.68c0.76,2.67,3.6,4.3,6.12,4.51
	c0.34,0.03,4.55,0.32,6.41-2.89c0.9-1.55,1.16-3.77,0.11-5.61c-0.96-1.69-3.06-3.13-4.52-2.6C12.99,14.43,13.3,16.57,11.83,17.07z"
	/>
<path d="M15.02,29.57c-3.3,2.36-9.12,7.17-8.28,8.66c0.39,0.7,2.16,0.5,3.21,0.22c4.67-1.24,4.6-6.64,9.18-8.43
	c3.14-1.23,6.38,0.04,6.64,0.15c3.85,1.57,4.64,5.31,7.99,5.45c0.18,0.01,2.15,0.07,2.69-0.97c0.82-1.59-2.11-5.11-5.15-6.94
	c-4.74-2.87-9.74-1.64-10.3-1.49C18.97,26.74,17.65,27.68,15.02,29.57z"/>
<path d="M6.2,25.83c-0.23-0.09-1.52,1.38-1.04,2.61c0.02,0.05,0.35,0.88,0.97,0.9c0.61,0.02,1.15-0.77,1.04-1.27
	c-0.09-0.4-0.53-0.37-0.82-0.9C5.99,26.52,6.34,25.88,6.2,25.83z"/>
<path d="M10.21,31.28"/>
</svg>
